<mxfile host="app.diagrams.net" modified="2023-06-30T06:42:38.002Z" agent="Mozilla/5.0 (Macintosh; Intel Mac OS X 10_15_7) AppleWebKit/537.36 (KHTML, like Gecko) Chrome/114.0.0.0 Safari/537.36" etag="swV_aDGpKGPq8PxMfcjN" version="21.3.8" type="github">
  <diagram name="Page-1" id="lMY-sMkPxDxuLvX3BMbK">
    <mxGraphModel dx="2092" dy="795" grid="1" gridSize="10" guides="1" tooltips="1" connect="1" arrows="1" fold="1" page="1" pageScale="1" pageWidth="850" pageHeight="1100" math="0" shadow="0">
      <root>
        <mxCell id="0" />
        <mxCell id="1" parent="0" />
        <mxCell id="CvFmvvVTMCm7SmgXRJdy-15" value="" style="rounded=0;whiteSpace=wrap;html=1;" vertex="1" parent="1">
          <mxGeometry y="60" width="1060" height="1050" as="geometry" />
        </mxCell>
        <mxCell id="CvFmvvVTMCm7SmgXRJdy-8" style="edgeStyle=orthogonalEdgeStyle;rounded=0;orthogonalLoop=1;jettySize=auto;html=1;exitX=0.5;exitY=1;exitDx=0;exitDy=0;entryX=0.568;entryY=-0.022;entryDx=0;entryDy=0;entryPerimeter=0;curved=1;" edge="1" parent="1" source="CvFmvvVTMCm7SmgXRJdy-1" target="CvFmvvVTMCm7SmgXRJdy-6">
          <mxGeometry relative="1" as="geometry" />
        </mxCell>
        <mxCell id="CvFmvvVTMCm7SmgXRJdy-1" value="&lt;div style=&quot;background-color: rgb(43, 43, 43); color: rgb(169, 183, 198); font-family: &amp;quot;JetBrains Mono&amp;quot;, monospace; font-size: 14.3pt;&quot;&gt;/data/datasets/python_processed_dataset/python_00000.txt&lt;/div&gt;" style="rounded=1;whiteSpace=wrap;html=1;" vertex="1" parent="1">
          <mxGeometry y="160" width="650" height="60" as="geometry" />
        </mxCell>
        <mxCell id="CvFmvvVTMCm7SmgXRJdy-9" style="edgeStyle=orthogonalEdgeStyle;rounded=0;orthogonalLoop=1;jettySize=auto;html=1;exitX=0.5;exitY=1;exitDx=0;exitDy=0;curved=1;" edge="1" parent="1" source="CvFmvvVTMCm7SmgXRJdy-6" target="CvFmvvVTMCm7SmgXRJdy-7">
          <mxGeometry relative="1" as="geometry" />
        </mxCell>
        <mxCell id="CvFmvvVTMCm7SmgXRJdy-6" value="yongyongliu_workspace/golang/golong_filter.py" style="rounded=0;whiteSpace=wrap;html=1;strokeWidth=2;fontSize=17;" vertex="1" parent="1">
          <mxGeometry x="15" y="340" width="410" height="90" as="geometry" />
        </mxCell>
        <mxCell id="CvFmvvVTMCm7SmgXRJdy-7" value="&lt;div style=&quot;background-color: rgb(43, 43, 43); color: rgb(169, 183, 198); font-family: &amp;quot;JetBrains Mono&amp;quot;, monospace; font-size: 14.3pt;&quot;&gt;/data/datasets/golang_python_mix/python_func_com&lt;/div&gt;" style="rounded=1;whiteSpace=wrap;html=1;" vertex="1" parent="1">
          <mxGeometry y="515" width="590" height="70" as="geometry" />
        </mxCell>
        <mxCell id="CvFmvvVTMCm7SmgXRJdy-10" style="edgeStyle=orthogonalEdgeStyle;rounded=0;orthogonalLoop=1;jettySize=auto;html=1;exitX=0.5;exitY=1;exitDx=0;exitDy=0;entryX=0.568;entryY=-0.022;entryDx=0;entryDy=0;entryPerimeter=0;curved=1;" edge="1" parent="1" source="CvFmvvVTMCm7SmgXRJdy-11" target="CvFmvvVTMCm7SmgXRJdy-13">
          <mxGeometry relative="1" as="geometry" />
        </mxCell>
        <mxCell id="CvFmvvVTMCm7SmgXRJdy-11" value="&lt;div style=&quot;background-color: rgb(43, 43, 43); color: rgb(169, 183, 198); font-family: &amp;quot;JetBrains Mono&amp;quot;, monospace; font-size: 14.3pt;&quot;&gt;&lt;div style=&quot;font-size: 14.3pt;&quot;&gt;/data/process_corpus/go （已清理）&lt;/div&gt;&lt;/div&gt;" style="rounded=1;whiteSpace=wrap;html=1;" vertex="1" parent="1">
          <mxGeometry y="700" width="650" height="60" as="geometry" />
        </mxCell>
        <mxCell id="CvFmvvVTMCm7SmgXRJdy-12" style="edgeStyle=orthogonalEdgeStyle;rounded=0;orthogonalLoop=1;jettySize=auto;html=1;exitX=0.5;exitY=1;exitDx=0;exitDy=0;curved=1;" edge="1" parent="1" source="CvFmvvVTMCm7SmgXRJdy-13" target="CvFmvvVTMCm7SmgXRJdy-14">
          <mxGeometry relative="1" as="geometry" />
        </mxCell>
        <mxCell id="CvFmvvVTMCm7SmgXRJdy-13" value="yongyongliu_workspace/golang/process_golang.py&lt;br&gt;通过load_dataset将源二进制数据集转为源csv文件" style="rounded=0;whiteSpace=wrap;html=1;strokeWidth=2;fontSize=17;" vertex="1" parent="1">
          <mxGeometry y="860" width="410" height="90" as="geometry" />
        </mxCell>
        <mxCell id="CvFmvvVTMCm7SmgXRJdy-14" value="&lt;div style=&quot;background-color: rgb(43, 43, 43); color: rgb(169, 183, 198); font-family: &amp;quot;JetBrains Mono&amp;quot;, monospace; font-size: 14.3pt;&quot;&gt;yongyongliu_workspace_nfs/golang_datasets/golang_dataset_00x.csv&lt;/div&gt;" style="rounded=1;whiteSpace=wrap;html=1;" vertex="1" parent="1">
          <mxGeometry y="1020" width="785" height="90" as="geometry" />
        </mxCell>
        <mxCell id="CvFmvvVTMCm7SmgXRJdy-16" value="&lt;font style=&quot;font-size: 17px;&quot;&gt;函数补全系列&lt;/font&gt;" style="rounded=0;whiteSpace=wrap;html=1;" vertex="1" parent="1">
          <mxGeometry y="60" width="120" height="60" as="geometry" />
        </mxCell>
        <mxCell id="CvFmvvVTMCm7SmgXRJdy-17" value="" style="rounded=0;whiteSpace=wrap;html=1;" vertex="1" parent="1">
          <mxGeometry y="1170" width="1060" height="1050" as="geometry" />
        </mxCell>
        <mxCell id="CvFmvvVTMCm7SmgXRJdy-18" value="QA、UT系列" style="rounded=0;whiteSpace=wrap;html=1;" vertex="1" parent="1">
          <mxGeometry y="1160" width="120" height="60" as="geometry" />
        </mxCell>
        <mxCell id="CvFmvvVTMCm7SmgXRJdy-19" style="edgeStyle=orthogonalEdgeStyle;rounded=0;orthogonalLoop=1;jettySize=auto;html=1;exitX=0.5;exitY=1;exitDx=0;exitDy=0;entryX=0.568;entryY=-0.022;entryDx=0;entryDy=0;entryPerimeter=0;curved=1;" edge="1" parent="1" source="CvFmvvVTMCm7SmgXRJdy-20" target="CvFmvvVTMCm7SmgXRJdy-22">
          <mxGeometry relative="1" as="geometry" />
        </mxCell>
        <mxCell id="CvFmvvVTMCm7SmgXRJdy-20" value="&lt;div style=&quot;background-color: rgb(43, 43, 43); color: rgb(169, 183, 198); font-family: &amp;quot;JetBrains Mono&amp;quot;, monospace; font-size: 14.3pt;&quot;&gt;&lt;div style=&quot;font-size: 14.3pt;&quot;&gt;&lt;div style=&quot;font-size: 14.3pt;&quot;&gt;/data/datasets/golang_qa/raw/golang_qa.json(语料组给的原始jsonl)&lt;/div&gt;&lt;/div&gt;&lt;/div&gt;" style="rounded=1;whiteSpace=wrap;html=1;" vertex="1" parent="1">
          <mxGeometry x="10" y="1250" width="650" height="60" as="geometry" />
        </mxCell>
        <mxCell id="CvFmvvVTMCm7SmgXRJdy-21" style="edgeStyle=orthogonalEdgeStyle;rounded=0;orthogonalLoop=1;jettySize=auto;html=1;exitX=0.5;exitY=1;exitDx=0;exitDy=0;curved=1;" edge="1" parent="1" source="CvFmvvVTMCm7SmgXRJdy-22" target="CvFmvvVTMCm7SmgXRJdy-23">
          <mxGeometry relative="1" as="geometry" />
        </mxCell>
        <mxCell id="CvFmvvVTMCm7SmgXRJdy-24" value="&lt;div style=&quot;background-color: rgb(43, 43, 43); color: rgb(169, 183, 198); font-family: &amp;quot;JetBrains Mono&amp;quot;, monospace;&quot;&gt;&lt;font style=&quot;font-size: 14px;&quot;&gt;f&quot;Now&amp;nbsp;you&amp;nbsp;are&amp;nbsp;a&amp;nbsp;{golang_seeds[count%4]} programmer. Write {golang_seeds[count%4]} code to implement the following description.\n&quot;&lt;/font&gt;&lt;/div&gt;" style="edgeLabel;html=1;align=center;verticalAlign=middle;resizable=0;points=[];" vertex="1" connectable="0" parent="CvFmvvVTMCm7SmgXRJdy-21">
          <mxGeometry x="-0.3455" y="18" relative="1" as="geometry">
            <mxPoint x="303" y="1" as="offset" />
          </mxGeometry>
        </mxCell>
        <mxCell id="CvFmvvVTMCm7SmgXRJdy-22" value="yongyongliu_workspace/golang/qa/golang_qa.py&lt;br&gt;通过load_dataset将源二进制数据集转为源csv文件" style="rounded=0;whiteSpace=wrap;html=1;strokeWidth=2;fontSize=17;" vertex="1" parent="1">
          <mxGeometry x="10" y="1410" width="410" height="90" as="geometry" />
        </mxCell>
        <mxCell id="CvFmvvVTMCm7SmgXRJdy-23" value="&lt;div style=&quot;background-color: rgb(43, 43, 43); color: rgb(169, 183, 198); font-family: &amp;quot;JetBrains Mono&amp;quot;, monospace; font-size: 14.3pt;&quot;&gt;&lt;div style=&quot;font-size: 14.3pt;&quot;&gt;/data/datasets/golang_qa/processed/chat_golang_range_0_512_count_xxx（已清理）&lt;/div&gt;&lt;/div&gt;" style="rounded=1;whiteSpace=wrap;html=1;" vertex="1" parent="1">
          <mxGeometry x="10" y="1670" width="920" height="90" as="geometry" />
        </mxCell>
      </root>
    </mxGraphModel>
  </diagram>
</mxfile>
